<?xml version="1.0" encoding="utf-8"?>
<!-- Generator: Adobe Adobe Illustrator 24.2.0, SVG Export Plug-In . SVG Version: 6.00 Build 0)  -->
<svg version="1.1" xmlns="http://www.w3.org/2000/svg" xmlns:xlink="http://www.w3.org/1999/xlink" x="0px" y="0px" width="200px"
	 height="200px" viewBox="0 0 200 200" style="enable-background:new 0 0 200 200;" xml:space="preserve">
<style type="text/css">
	.st0{clip-path:url(#SVGID_6_);fill:#FFFFFF;stroke:#000000;stroke-width:6;stroke-miterlimit:10;}
	.st1{clip-path:url(#SVGID_8_);fill:#FFFFFF;stroke:#000000;stroke-width:6;stroke-miterlimit:10;}
	.st2{clip-path:url(#SVGID_14_);fill:#FFFFFF;stroke:#000000;stroke-width:6;stroke-miterlimit:10;}
	.st3{clip-path:url(#SVGID_16_);fill:#FFFFFF;stroke:#000000;stroke-width:6;stroke-miterlimit:10;}
	.st4{clip-path:url(#SVGID_18_);fill:#FFFFFF;stroke:#000000;stroke-width:6;stroke-miterlimit:10;}
	.st5{clip-path:url(#SVGID_20_);fill:#FFFFFF;stroke:#000000;stroke-width:6;stroke-miterlimit:10;}
	.st6{clip-path:url(#SVGID_26_);fill:#FFFFFF;stroke:#000000;stroke-width:6;stroke-miterlimit:10;}
	.st7{clip-path:url(#SVGID_28_);fill:#FFFFFF;stroke:#000000;stroke-width:6;stroke-miterlimit:10;}
	.st8{clip-path:url(#SVGID_34_);fill:#FFFFFF;stroke:#000000;stroke-width:6;stroke-miterlimit:10;}
	.st9{clip-path:url(#SVGID_36_);fill:#FFFFFF;stroke:#000000;stroke-width:6;stroke-miterlimit:10;}
	.st10{clip-path:url(#SVGID_38_);}
	.st11{clip-path:url(#SVGID_40_);}
	.st12{clip-path:url(#SVGID_42_);}
	.st13{clip-path:url(#SVGID_44_);}
	.st14{clip-path:url(#SVGID_50_);fill:#FFFFFF;stroke:#000000;stroke-width:6;stroke-miterlimit:10;}
	.st15{clip-path:url(#SVGID_52_);fill:#FFFFFF;stroke:#000000;stroke-width:6;stroke-miterlimit:10;}
	.st16{clip-path:url(#SVGID_58_);fill:#FFFFFF;stroke:#000000;stroke-width:6;stroke-miterlimit:10;}
	.st17{clip-path:url(#SVGID_60_);fill:#FFFFFF;stroke:#000000;stroke-width:6;stroke-miterlimit:10;}
	.st18{clip-path:url(#SVGID_62_);}
	.st19{clip-path:url(#SVGID_64_);}
	.st20{clip-path:url(#SVGID_70_);fill:#FFFFFF;stroke:#000000;stroke-width:6;stroke-miterlimit:10;}
	.st21{clip-path:url(#SVGID_72_);fill:#FFFFFF;stroke:#000000;stroke-width:6;stroke-miterlimit:10;}
	.st22{clip-path:url(#SVGID_78_);fill:#FFFFFF;stroke:#000000;stroke-width:6;stroke-miterlimit:10;}
	.st23{clip-path:url(#SVGID_80_);fill:#FFFFFF;stroke:#000000;stroke-width:6;stroke-miterlimit:10;}
	.st24{clip-path:url(#SVGID_82_);}
	.st25{clip-path:url(#SVGID_84_);}
	.st26{fill:#FFB300;}
	.st27{fill:#FFFFFF;stroke:#000000;stroke-width:6;stroke-miterlimit:10;}
	.st28{clip-path:url(#SVGID_86_);fill:#FFFFFF;stroke:#000000;stroke-width:6;stroke-miterlimit:10;}
	.st29{clip-path:url(#SVGID_88_);fill:#FFFFFF;stroke:#000000;stroke-width:6;stroke-miterlimit:10;}
	.st30{clip-path:url(#SVGID_90_);}
	.st31{clip-path:url(#SVGID_92_);}
	.st32{clip-path:url(#SVGID_98_);}
	.st33{fill:#FFFFFF;}
	.st34{clip-path:url(#SVGID_100_);}
	.st35{clip-path:url(#SVGID_106_);}
	.st36{clip-path:url(#SVGID_108_);}
	.st37{clip-path:url(#SVGID_114_);}
	.st38{clip-path:url(#SVGID_116_);fill:#FFFFFF;}
	.st39{clip-path:url(#SVGID_116_);}
	.st40{fill:none;}
	.st41{clip-path:url(#SVGID_122_);}
	.st42{clip-path:url(#SVGID_124_);}
	.st43{fill:url(#SVGID_125_);stroke:#A15B49;stroke-width:6;stroke-miterlimit:10;}
	.st44{clip-path:url(#SVGID_127_);}
	.st45{clip-path:url(#SVGID_129_);}
	.st46{clip-path:url(#SVGID_131_);}
	.st47{clip-path:url(#SVGID_133_);}
	.st48{fill:#FFFF00;stroke:#000000;stroke-width:6;stroke-miterlimit:10;}
	.st49{fill:none;stroke:#000000;stroke-width:5;stroke-miterlimit:10;}
	.st50{fill:#FFFFFF;stroke:#000000;stroke-miterlimit:10;}
	.st51{fill:none;stroke:#000000;stroke-width:3;stroke-miterlimit:10;}
	.st52{fill:none;stroke:#000000;stroke-width:8;stroke-miterlimit:10;}
</style>
<g id="レイヤー_2">
	
		<radialGradient id="SVGID_2_" cx="100.4096" cy="106.2037" r="73.7832" gradientTransform="matrix(1 0 0 0.9251 0 6.8641)" gradientUnits="userSpaceOnUse">
		<stop  offset="0" style="stop-color:#ED5B3F"/>
		<stop  offset="0.3731" style="stop-color:#ED5D41"/>
		<stop  offset="0.5329" style="stop-color:#EE6446"/>
		<stop  offset="0.6519" style="stop-color:#EF714F"/>
		<stop  offset="0.7507" style="stop-color:#F1825C"/>
		<stop  offset="0.837" style="stop-color:#F39A6E"/>
		<stop  offset="0.9146" style="stop-color:#F5B683"/>
		<stop  offset="0.984" style="stop-color:#F8D79B"/>
		<stop  offset="1" style="stop-color:#F9E0A2"/>
	</radialGradient>
	<path style="fill:url(#SVGID_2_);stroke:#A15B49;stroke-width:6;stroke-miterlimit:10;" d="M100.38,168.98
		c-0.26,0.01-0.51,0.01-0.77,0c-53.17-0.41-82.62-26.98-77.73-65.72c4.47-35.37,34.05-71.82,77.73-72.24c0.26-0.01,0.51-0.01,0.77,0
		c43.68,0.42,73.26,36.87,77.73,72.24C183,142,153.56,168.57,100.38,168.98z"/>
	<g>
		<g>
			<defs>
				<rect id="SVGID_126_" x="59.74" y="101.33" width="40.26" height="24.99"/>
			</defs>
			<clipPath id="SVGID_4_">
				<use xlink:href="#SVGID_126_"  style="overflow:visible;"/>
			</clipPath>
			<path style="clip-path:url(#SVGID_4_);" d="M59.97,111.2c1.18-2.08,5.79,2.82,10.56,0.91c7.22-2.9,7.49-6.25,12.34-8.64
				c10.13-5,17.72-0.07,17.72,3.01c0,5.51-4.62,12.99-12.9,17.23C69.58,132.99,57.92,114.82,59.97,111.2z"/>
		</g>
		<g>
			<defs>
				<rect id="SVGID_128_" x="100" y="101.33" width="40.26" height="24.99"/>
			</defs>
			<clipPath id="SVGID_6_">
				<use xlink:href="#SVGID_128_"  style="overflow:visible;"/>
			</clipPath>
			<path style="clip-path:url(#SVGID_6_);" d="M140.03,111.2c-1.18-2.08-5.79,2.82-10.56,0.91c-7.22-2.9-7.49-6.25-12.34-8.64
				c-10.13-5-17.72-0.07-17.72,3.01c0,5.51,4.62,12.99,12.9,17.23C130.42,132.99,142.08,114.82,140.03,111.2z"/>
		</g>
	</g>
	<g>
		<path class="st40" d="M74.64,75.54c1.31-4.8,3.96-8.97,7.46-11.72c3.77-2.97,8.06-3.99,12.1-2.89c2.26,0.62,4.21,1.89,5.8,3.6
			v-4.03H73.78V98.5h13.5c-1.08,0-2.16-0.14-3.21-0.43C76.07,95.89,71.85,85.78,74.64,75.54z"/>
		<path class="st40" d="M100,91.12v7.38h12.72c-3.04,0-6.11-1.13-8.89-3.32C102.4,94.05,101.12,92.67,100,91.12z"/>
		<path class="st40" d="M96.17,95.18c-2.78,2.19-5.85,3.32-8.89,3.32H100v-7.38C98.88,92.67,97.6,94.05,96.17,95.18z"/>
		<path class="st40" d="M100,60.49v4.03c1.59-1.71,3.53-2.98,5.8-3.6c4.04-1.1,8.34-0.08,12.1,2.89c3.5,2.76,6.15,6.92,7.46,11.72
			c2.79,10.24-1.43,20.35-9.43,22.53c-1.06,0.29-2.13,0.43-3.21,0.43h13.5V60.49H100z"/>
		<path class="st33" d="M107.55,90.46c2.23,1.76,4.65,2.4,6.81,1.81c4.72-1.29,7.11-8.23,5.22-15.16c-0.97-3.57-2.89-6.62-5.38-8.59
			c-1.69-1.33-3.49-2.03-5.21-2.03c-0.54,0-1.08,0.07-1.6,0.21c-4.72,1.29-7.11,8.23-5.22,15.16
			C103.14,85.45,105.05,88.5,107.55,90.46z"/>
		<path d="M125.36,75.54c-1.31-4.8-3.96-8.97-7.46-11.72c-3.77-2.97-8.06-3.99-12.1-2.89c-2.26,0.62-4.21,1.89-5.8,3.6v5.31
			c1.38-2.99,3.65-5.21,6.59-6.02c6.41-1.75,13.51,3.85,15.88,12.51s-0.92,17.09-7.32,18.84c-5.85,1.6-12.27-2.94-15.14-10.33v6.28
			c1.12,1.55,2.4,2.93,3.83,4.06c2.78,2.19,5.85,3.32,8.89,3.32c1.08,0,2.16-0.14,3.21-0.43C123.93,95.89,128.15,85.78,125.36,75.54
			z"/>
		<path d="M115.14,95.17c6.41-1.75,9.68-10.19,7.32-18.84S113,62.07,106.59,63.82c-2.94,0.8-5.21,3.02-6.59,6.02v15.01
			C102.87,92.23,109.3,96.77,115.14,95.17z M107.38,66.71c0.52-0.14,1.06-0.21,1.6-0.21c1.71,0,3.51,0.69,5.21,2.03
			c2.5,1.97,4.41,5.02,5.38,8.59c1.89,6.93-0.5,13.87-5.22,15.16c-2.16,0.59-4.58-0.06-6.81-1.81c-2.5-1.97-4.41-5.02-5.38-8.59
			C100.27,74.94,102.66,68,107.38,66.71z"/>
		<path class="st33" d="M92.62,66.71c-0.52-0.14-1.06-0.21-1.6-0.21c-1.71,0-3.51,0.69-5.21,2.03c-2.5,1.97-4.41,5.02-5.38,8.59
			c-1.89,6.93,0.5,13.87,5.22,15.16c2.16,0.59,4.58-0.06,6.81-1.81c2.5-1.97,4.41-5.02,5.38-8.59C99.73,74.94,97.34,68,92.62,66.71z
			"/>
		<path d="M100,91.12v-6.28c-2.87,7.39-9.3,11.93-15.14,10.33c-6.41-1.75-9.68-10.19-7.32-18.84S87,62.07,93.41,63.82
			c2.94,0.8,5.21,3.02,6.59,6.02v-5.31c-1.59-1.71-3.53-2.98-5.8-3.6c-4.04-1.1-8.34-0.08-12.1,2.89c-3.5,2.76-6.15,6.92-7.46,11.72
			c-2.79,10.24,1.43,20.35,9.43,22.53c1.06,0.29,2.13,0.43,3.21,0.43c3.04,0,6.11-1.13,8.89-3.32C97.6,94.05,98.88,92.67,100,91.12z
			"/>
		<path d="M93.41,63.82C87,62.07,79.9,67.67,77.53,76.33s0.92,17.09,7.32,18.84c5.85,1.6,12.27-2.94,15.14-10.33V69.84
			C98.62,66.84,96.35,64.62,93.41,63.82z M97.84,81.87c-0.97,3.57-2.89,6.62-5.38,8.59c-2.23,1.76-4.65,2.4-6.81,1.81
			c-4.72-1.29-7.11-8.23-5.22-15.16c0.97-3.57,2.89-6.62,5.38-8.59c1.69-1.33,3.49-2.03,5.21-2.03c0.54,0,1.08,0.07,1.6,0.21
			C97.34,68,99.73,74.94,97.84,81.87z"/>
	</g>
	<path d="M110.62,86.82c-0.99-3.38-2.68-5.72-4.75-6.88c2.07-1.15,3.76-3.49,4.75-6.88c0.99,3.39,2.68,5.72,4.75,6.88
		C113.3,81.09,111.61,83.43,110.62,86.82z"/>
	<path d="M89.72,86.82c-0.99-3.38-2.68-5.72-4.75-6.88c2.07-1.15,3.76-3.49,4.75-6.88c0.99,3.39,2.68,5.72,4.75,6.88
		C92.4,81.09,90.71,83.43,89.72,86.82z"/>
	<g>
		<g>
			<defs>
				<rect id="SVGID_130_" x="59.74" y="101.33" width="40.26" height="24.99"/>
			</defs>
			<clipPath id="SVGID_8_">
				<use xlink:href="#SVGID_130_"  style="overflow:visible;"/>
			</clipPath>
			<path style="clip-path:url(#SVGID_8_);" d="M59.97,111.2c1.18-2.08,5.79,2.82,10.56,0.91c7.22-2.9,7.49-6.25,12.34-8.64
				c10.13-5,17.72-0.07,17.72,3.01c0,5.51-4.62,12.99-12.9,17.23C69.58,132.99,57.92,114.82,59.97,111.2z"/>
		</g>
		<g>
			<defs>
				<rect id="SVGID_132_" x="100" y="101.33" width="40.26" height="24.99"/>
			</defs>
			<clipPath id="SVGID_10_">
				<use xlink:href="#SVGID_132_"  style="overflow:visible;"/>
			</clipPath>
			<path style="clip-path:url(#SVGID_10_);" d="M140.03,111.2c-1.18-2.08-5.79,2.82-10.56,0.91c-7.22-2.9-7.49-6.25-12.34-8.64
				c-10.13-5-17.72-0.07-17.72,3.01c0,5.51,4.62,12.99,12.9,17.23C130.42,132.99,142.08,114.82,140.03,111.2z"/>
		</g>
	</g>
	<g>
		<path class="st40" d="M74.64,75.54c1.31-4.8,3.96-8.97,7.46-11.72c3.77-2.97,8.06-3.99,12.1-2.89c2.26,0.62,4.21,1.89,5.8,3.6
			v-4.03H73.78V98.5h13.5c-1.08,0-2.16-0.14-3.21-0.43C76.07,95.89,71.85,85.78,74.64,75.54z"/>
		<path class="st40" d="M100,91.12v7.38h12.72c-3.04,0-6.11-1.13-8.89-3.32C102.4,94.05,101.12,92.67,100,91.12z"/>
		<path class="st40" d="M96.17,95.18c-2.78,2.19-5.85,3.32-8.89,3.32H100v-7.38C98.88,92.67,97.6,94.05,96.17,95.18z"/>
		<path class="st40" d="M100,60.49v4.03c1.59-1.71,3.53-2.98,5.8-3.6c4.04-1.1,8.34-0.08,12.1,2.89c3.5,2.76,6.15,6.92,7.46,11.72
			c2.79,10.24-1.43,20.35-9.43,22.53c-1.06,0.29-2.13,0.43-3.21,0.43h13.5V60.49H100z"/>
		<path class="st33" d="M107.55,90.46c2.23,1.76,4.65,2.4,6.81,1.81c4.72-1.29,7.11-8.23,5.22-15.16c-0.97-3.57-2.89-6.62-5.38-8.59
			c-1.69-1.33-3.49-2.03-5.21-2.03c-0.54,0-1.08,0.07-1.6,0.21c-4.72,1.29-7.11,8.23-5.22,15.16
			C103.14,85.45,105.05,88.5,107.55,90.46z"/>
		<path d="M125.36,75.54c-1.31-4.8-3.96-8.97-7.46-11.72c-3.77-2.97-8.06-3.99-12.1-2.89c-2.26,0.62-4.21,1.89-5.8,3.6v5.31
			c1.38-2.99,3.65-5.21,6.59-6.02c6.41-1.75,13.51,3.85,15.88,12.51s-0.92,17.09-7.32,18.84c-5.85,1.6-12.27-2.94-15.14-10.33v6.28
			c1.12,1.55,2.4,2.93,3.83,4.06c2.78,2.19,5.85,3.32,8.89,3.32c1.08,0,2.16-0.14,3.21-0.43C123.93,95.89,128.15,85.78,125.36,75.54
			z"/>
		<path d="M115.14,95.17c6.41-1.75,9.68-10.19,7.32-18.84S113,62.07,106.59,63.82c-2.94,0.8-5.21,3.02-6.59,6.02v15.01
			C102.87,92.23,109.3,96.77,115.14,95.17z M107.38,66.71c0.52-0.14,1.06-0.21,1.6-0.21c1.71,0,3.51,0.69,5.21,2.03
			c2.5,1.97,4.41,5.02,5.38,8.59c1.89,6.93-0.5,13.87-5.22,15.16c-2.16,0.59-4.58-0.06-6.81-1.81c-2.5-1.97-4.41-5.02-5.38-8.59
			C100.27,74.94,102.66,68,107.38,66.71z"/>
		<path class="st33" d="M92.62,66.71c-0.52-0.14-1.06-0.21-1.6-0.21c-1.71,0-3.51,0.69-5.21,2.03c-2.5,1.97-4.41,5.02-5.38,8.59
			c-1.89,6.93,0.5,13.87,5.22,15.16c2.16,0.59,4.58-0.06,6.81-1.81c2.5-1.97,4.41-5.02,5.38-8.59C99.73,74.94,97.34,68,92.62,66.71z
			"/>
		<path d="M100,91.12v-6.28c-2.87,7.39-9.3,11.93-15.14,10.33c-6.41-1.75-9.68-10.19-7.32-18.84S87,62.07,93.41,63.82
			c2.94,0.8,5.21,3.02,6.59,6.02v-5.31c-1.59-1.71-3.53-2.98-5.8-3.6c-4.04-1.1-8.34-0.08-12.1,2.89c-3.5,2.76-6.15,6.92-7.46,11.72
			c-2.79,10.24,1.43,20.35,9.43,22.53c1.06,0.29,2.13,0.43,3.21,0.43c3.04,0,6.11-1.13,8.89-3.32C97.6,94.05,98.88,92.67,100,91.12z
			"/>
		<path d="M93.41,63.82C87,62.07,79.9,67.67,77.53,76.33s0.92,17.09,7.32,18.84c5.85,1.6,12.27-2.94,15.14-10.33V69.84
			C98.62,66.84,96.35,64.62,93.41,63.82z M97.84,81.87c-0.97,3.57-2.89,6.62-5.38,8.59c-2.23,1.76-4.65,2.4-6.81,1.81
			c-4.72-1.29-7.11-8.23-5.22-15.16c0.97-3.57,2.89-6.62,5.38-8.59c1.69-1.33,3.49-2.03,5.21-2.03c0.54,0,1.08,0.07,1.6,0.21
			C97.34,68,99.73,74.94,97.84,81.87z"/>
	</g>
	<path d="M110.62,86.82c-0.99-3.38-2.68-5.72-4.75-6.88c2.07-1.15,3.76-3.49,4.75-6.88c0.99,3.39,2.68,5.72,4.75,6.88
		C113.3,81.09,111.61,83.43,110.62,86.82z"/>
	<path d="M89.72,86.82c-0.99-3.38-2.68-5.72-4.75-6.88c2.07-1.15,3.76-3.49,4.75-6.88c0.99,3.39,2.68,5.72,4.75,6.88
		C92.4,81.09,90.71,83.43,89.72,86.82z"/>
</g>
<g id="レイヤー_3">
</g>
<g id="レイヤー_1">
</g>
</svg>
