<?xml version="1.0" encoding="utf-8"?>
<!-- Generator: Adobe Adobe Illustrator 24.2.0, SVG Export Plug-In . SVG Version: 6.00 Build 0)  -->
<svg version="1.1" xmlns="http://www.w3.org/2000/svg" xmlns:xlink="http://www.w3.org/1999/xlink" x="0px" y="0px" width="200px"
	 height="200px" viewBox="0 0 200 200" style="enable-background:new 0 0 200 200;" xml:space="preserve">
<style type="text/css">
	.st0{clip-path:url(#SVGID_6_);fill:#FFFFFF;stroke:#000000;stroke-width:6;stroke-miterlimit:10;}
	.st1{clip-path:url(#SVGID_8_);fill:#FFFFFF;stroke:#000000;stroke-width:6;stroke-miterlimit:10;}
	.st2{clip-path:url(#SVGID_14_);fill:#FFFFFF;stroke:#000000;stroke-width:6;stroke-miterlimit:10;}
	.st3{clip-path:url(#SVGID_16_);fill:#FFFFFF;stroke:#000000;stroke-width:6;stroke-miterlimit:10;}
	.st4{clip-path:url(#SVGID_18_);fill:#FFFFFF;stroke:#000000;stroke-width:6;stroke-miterlimit:10;}
	.st5{clip-path:url(#SVGID_20_);fill:#FFFFFF;stroke:#000000;stroke-width:6;stroke-miterlimit:10;}
	.st6{clip-path:url(#SVGID_26_);fill:#FFFFFF;stroke:#000000;stroke-width:6;stroke-miterlimit:10;}
	.st7{clip-path:url(#SVGID_28_);fill:#FFFFFF;stroke:#000000;stroke-width:6;stroke-miterlimit:10;}
	.st8{clip-path:url(#SVGID_34_);fill:#FFFFFF;stroke:#000000;stroke-width:6;stroke-miterlimit:10;}
	.st9{clip-path:url(#SVGID_36_);fill:#FFFFFF;stroke:#000000;stroke-width:6;stroke-miterlimit:10;}
	.st10{clip-path:url(#SVGID_38_);}
	.st11{clip-path:url(#SVGID_40_);}
	.st12{clip-path:url(#SVGID_42_);}
	.st13{clip-path:url(#SVGID_44_);}
	.st14{clip-path:url(#SVGID_50_);fill:#FFFFFF;stroke:#000000;stroke-width:6;stroke-miterlimit:10;}
	.st15{clip-path:url(#SVGID_52_);fill:#FFFFFF;stroke:#000000;stroke-width:6;stroke-miterlimit:10;}
	.st16{clip-path:url(#SVGID_58_);fill:#FFFFFF;stroke:#000000;stroke-width:6;stroke-miterlimit:10;}
	.st17{clip-path:url(#SVGID_60_);fill:#FFFFFF;stroke:#000000;stroke-width:6;stroke-miterlimit:10;}
	.st18{clip-path:url(#SVGID_62_);}
	.st19{clip-path:url(#SVGID_64_);}
	.st20{clip-path:url(#SVGID_70_);fill:#FFFFFF;stroke:#000000;stroke-width:6;stroke-miterlimit:10;}
	.st21{clip-path:url(#SVGID_72_);fill:#FFFFFF;stroke:#000000;stroke-width:6;stroke-miterlimit:10;}
	.st22{clip-path:url(#SVGID_78_);fill:#FFFFFF;stroke:#000000;stroke-width:6;stroke-miterlimit:10;}
	.st23{clip-path:url(#SVGID_80_);fill:#FFFFFF;stroke:#000000;stroke-width:6;stroke-miterlimit:10;}
	.st24{clip-path:url(#SVGID_82_);}
	.st25{clip-path:url(#SVGID_84_);}
	.st26{fill:#FFB300;}
	.st27{fill:#FFFFFF;stroke:#000000;stroke-width:6;stroke-miterlimit:10;}
	.st28{clip-path:url(#SVGID_86_);fill:#FFFFFF;stroke:#000000;stroke-width:6;stroke-miterlimit:10;}
	.st29{clip-path:url(#SVGID_88_);fill:#FFFFFF;stroke:#000000;stroke-width:6;stroke-miterlimit:10;}
	.st30{clip-path:url(#SVGID_90_);}
	.st31{clip-path:url(#SVGID_92_);}
	.st32{clip-path:url(#SVGID_98_);}
	.st33{fill:#FFFFFF;}
	.st34{clip-path:url(#SVGID_100_);}
	.st35{clip-path:url(#SVGID_106_);}
	.st36{clip-path:url(#SVGID_108_);}
	.st37{clip-path:url(#SVGID_114_);}
	.st38{clip-path:url(#SVGID_116_);fill:#FFFFFF;}
	.st39{clip-path:url(#SVGID_116_);}
	.st40{fill:none;}
	.st41{fill:#FFFF00;stroke:#000000;stroke-width:6;stroke-miterlimit:10;}
	.st42{fill:none;stroke:#000000;stroke-width:5;stroke-miterlimit:10;}
	.st43{fill:#FFFFFF;stroke:#000000;stroke-miterlimit:10;}
	.st44{fill:none;stroke:#000000;stroke-width:3;stroke-miterlimit:10;}
	.st45{fill:none;stroke:#000000;stroke-width:8;stroke-miterlimit:10;}
</style>
<g id="レイヤー_2">
	<path class="st27" d="M100.38,174.79c-0.26,0.01-0.51,0.01-0.77,0c-53.17-0.41-82.62-26.98-77.73-65.72
		c4.47-35.37,34.05-71.82,77.73-72.24c0.26-0.01,0.51-0.01,0.77,0c43.68,0.42,73.26,36.87,77.73,72.24
		C183,147.81,153.56,174.38,100.38,174.79z"/>
	<g>
		<g>
			<defs>
				<rect id="SVGID_105_" x="59.74" y="107.14" width="40.26" height="24.99"/>
			</defs>
			<clipPath id="SVGID_2_">
				<use xlink:href="#SVGID_105_"  style="overflow:visible;"/>
			</clipPath>
			<path style="clip-path:url(#SVGID_2_);" d="M59.97,117.01c1.18-2.08,5.79,2.82,10.56,0.91c7.22-2.9,7.49-6.25,12.34-8.64
				c10.13-5,17.72-0.07,17.72,3.01c0,5.51-4.62,12.99-12.9,17.23C69.58,138.8,57.92,120.63,59.97,117.01z"/>
		</g>
		<g>
			<defs>
				<rect id="SVGID_107_" x="100" y="107.14" width="40.26" height="24.99"/>
			</defs>
			<clipPath id="SVGID_4_">
				<use xlink:href="#SVGID_107_"  style="overflow:visible;"/>
			</clipPath>
			<path style="clip-path:url(#SVGID_4_);" d="M140.03,117.01c-1.18-2.08-5.79,2.82-10.56,0.91c-7.22-2.9-7.49-6.25-12.34-8.64
				c-10.13-5-17.72-0.07-17.72,3.01c0,5.51,4.62,12.99,12.9,17.23C130.42,138.8,142.08,120.63,140.03,117.01z"/>
		</g>
	</g>
	<g>
		<path class="st40" d="M74.64,81.35c1.31-4.8,3.96-8.97,7.46-11.72c3.77-2.97,8.06-3.99,12.1-2.89c2.26,0.62,4.21,1.89,5.8,3.6
			V66.3H73.78v38.01h13.5c-1.08,0-2.16-0.14-3.21-0.43C76.07,101.69,71.85,91.59,74.64,81.35z"/>
		<path class="st40" d="M100,96.93v7.38h12.72c-3.04,0-6.11-1.13-8.89-3.32C102.4,99.86,101.12,98.48,100,96.93z"/>
		<path class="st40" d="M96.17,100.99c-2.78,2.19-5.85,3.32-8.89,3.32H100v-7.38C98.88,98.48,97.6,99.86,96.17,100.99z"/>
		<path class="st40" d="M100,66.3v4.03c1.59-1.71,3.53-2.98,5.8-3.6c4.04-1.1,8.34-0.08,12.1,2.89c3.5,2.76,6.15,6.92,7.46,11.72
			c2.79,10.24-1.43,20.35-9.43,22.53c-1.06,0.29-2.13,0.43-3.21,0.43h13.5V66.3H100z"/>
		<path class="st33" d="M107.55,96.27c2.23,1.76,4.65,2.4,6.81,1.81c4.72-1.29,7.11-8.23,5.22-15.16c-0.97-3.57-2.89-6.62-5.38-8.59
			c-1.69-1.33-3.49-2.03-5.21-2.03c-0.54,0-1.08,0.07-1.6,0.21c-4.72,1.29-7.11,8.23-5.22,15.16
			C103.14,91.25,105.05,94.31,107.55,96.27z"/>
		<path d="M125.36,81.35c-1.31-4.8-3.96-8.97-7.46-11.72c-3.77-2.97-8.06-3.99-12.1-2.89c-2.26,0.62-4.21,1.89-5.8,3.6v5.31
			c1.38-2.99,3.65-5.21,6.59-6.02c6.41-1.75,13.51,3.85,15.88,12.51s-0.92,17.09-7.32,18.84c-5.85,1.6-12.27-2.94-15.14-10.33v6.28
			c1.12,1.55,2.4,2.93,3.83,4.06c2.78,2.19,5.85,3.32,8.89,3.32c1.08,0,2.16-0.14,3.21-0.43
			C123.93,101.69,128.15,91.59,125.36,81.35z"/>
		<path d="M115.14,100.98c6.41-1.75,9.68-10.19,7.32-18.84S113,67.88,106.59,69.63c-2.94,0.8-5.21,3.02-6.59,6.02v15.01
			C102.87,98.04,109.3,102.58,115.14,100.98z M107.38,72.52c0.52-0.14,1.06-0.21,1.6-0.21c1.71,0,3.51,0.69,5.21,2.03
			c2.5,1.97,4.41,5.02,5.38,8.59c1.89,6.93-0.5,13.87-5.22,15.16c-2.16,0.59-4.58-0.06-6.81-1.81c-2.5-1.97-4.41-5.02-5.38-8.59
			C100.27,80.75,102.66,73.81,107.38,72.52z"/>
		<path class="st33" d="M92.62,72.52c-0.52-0.14-1.06-0.21-1.6-0.21c-1.71,0-3.51,0.69-5.21,2.03c-2.5,1.97-4.41,5.02-5.38,8.59
			c-1.89,6.93,0.5,13.87,5.22,15.16c2.16,0.59,4.58-0.06,6.81-1.81c2.5-1.97,4.41-5.02,5.38-8.59
			C99.73,80.75,97.34,73.81,92.62,72.52z"/>
		<path d="M100,96.93v-6.28c-2.87,7.39-9.3,11.93-15.14,10.33c-6.41-1.75-9.68-10.19-7.32-18.84S87,67.88,93.41,69.63
			c2.94,0.8,5.21,3.02,6.59,6.02v-5.31c-1.59-1.71-3.53-2.98-5.8-3.6c-4.04-1.1-8.34-0.08-12.1,2.89c-3.5,2.76-6.15,6.92-7.46,11.72
			c-2.79,10.24,1.43,20.35,9.43,22.53c1.06,0.29,2.13,0.43,3.21,0.43c3.04,0,6.11-1.13,8.89-3.32C97.6,99.86,98.88,98.48,100,96.93z
			"/>
		<path d="M93.41,69.63C87,67.88,79.9,73.48,77.53,82.14s0.92,17.09,7.32,18.84c5.85,1.6,12.27-2.94,15.14-10.33V75.65
			C98.62,72.65,96.35,70.43,93.41,69.63z M97.84,87.68c-0.97,3.57-2.89,6.62-5.38,8.59c-2.23,1.76-4.65,2.4-6.81,1.81
			c-4.72-1.29-7.11-8.23-5.22-15.16c0.97-3.57,2.89-6.62,5.38-8.59c1.69-1.33,3.49-2.03,5.21-2.03c0.54,0,1.08,0.07,1.6,0.21
			C97.34,73.81,99.73,80.75,97.84,87.68z"/>
	</g>
	<path d="M110.62,92.62c-0.99-3.38-2.68-5.72-4.75-6.88c2.07-1.15,3.76-3.49,4.75-6.88c0.99,3.39,2.68,5.72,4.75,6.87
		C113.3,86.9,111.61,89.24,110.62,92.62z"/>
	<path d="M89.72,92.62c-0.99-3.38-2.68-5.72-4.75-6.88c2.07-1.15,3.76-3.49,4.75-6.88c0.99,3.39,2.68,5.72,4.75,6.87
		C92.4,86.9,90.71,89.24,89.72,92.62z"/>
</g>
<g id="レイヤー_3">
</g>
<g id="レイヤー_1">
</g>
</svg>
